# xmcd
#
# Track frame offsets: 
#        150
#        21802
#        48672
#        66565
#        85110
#        103722
#        139022
#        156940
#        177892
#        198640
#
# Disc length: 2979 seconds
#
# Revision: 7
# Processed by: cddbd v1.5.2PL0 Copyright (c) Steve Scherf et al.
# Submitted via: ExactAudioCopy v0.99pb5
#
DISCID=8c0ba10a
DTITLE=Judas Priest - Ram It Down
DYEAR=1988
DGENRE=Heavy Metal
TTITLE0=Ram It Down
TTITLE1=Heavy Metal
TTITLE2=Love Zone
TTITLE3=Come And Get It
TTITLE4=Hard As Iron
TTITLE5=Blood Red Skies
TTITLE6=I'm A Rocker
TTITLE7=Johnny B. Goode
TTITLE8=Love You To Death
TTITLE9=Monsters Of Rock
EXTD=YEAR: 1988
EXTT0=
EXTT1=
EXTT2=
EXTT3=
EXTT4=
EXTT5=
EXTT6=
EXTT7=
EXTT8=
EXTT9=
PLAYORDER=
